<?xml version="1.0" encoding="utf-8"?>
<!-- Generator: Adobe Illustrator 22.0.0, SVG Export Plug-In . SVG Version: 6.00 Build 0)  -->
<svg version="1.1" id="Layer_1" xmlns="http://www.w3.org/2000/svg" xmlns:xlink="http://www.w3.org/1999/xlink" x="0px" y="0px" width="24" height="32.37" viewBox="0 0 235 317" style="enable-background:new 0 0 235 317;" xml:space="preserve">
<style type="text/css">
	.st0{fill:#07B296;}
</style>
<path id="tapa_2" class="st0" d="M223,31h-61.3c1.5-2.3,2.3-5.1,2.3-8v-8c0-8.3-6.8-15-15-15H86c-8.3,0-15,6.8-15,15v8
	c0,2.9,0.9,5.7,2.3,8H12C5.4,31,0,36.4,0,43v11c0,6.6,5.4,12,12,12h211c6.6,0,12-5.4,12-12V43C235,36.4,229.6,31,223,31z M143,22H93
	c-2.8,0-5-2.3-5-5s2.3-5,5-5h50c2.8,0,5,2.3,5,5S145.8,22,143,22z"/>
<path class="st0" d="M198,81h-6.1H42.1H31H14.1l15.6,224.7c0.4,6.4,5.9,11.3,12.2,11.2c0.5,0.1,1,0.1,1.5,0.1H191c0.5,0,1,0,1.5-0.1
	c6.2-0.1,11.4-4.9,11.9-11.2L220,81H198z M81,274.5c0,4.1-3.4,7.5-7.5,7.5h-13c-4.1,0-7.5-3.4-7.5-7.5v-151c0-4.1,3.4-7.5,7.5-7.5
	h13c4.1,0,7.5,3.4,7.5,7.5V274.5z M131,274.5c0,4.1-3.4,7.5-7.5,7.5h-13c-4.1,0-7.5-3.4-7.5-7.5v-151c0-4.1,3.4-7.5,7.5-7.5h13
	c4.1,0,7.5,3.4,7.5,7.5V274.5z M180,274.5c0,4.1-3.4,7.5-7.5,7.5h-13c-4.1,0-7.5-3.4-7.5-7.5v-151c0-4.1,3.4-7.5,7.5-7.5h13
	c4.1,0,7.5,3.4,7.5,7.5V274.5z"/>
</svg>
