<?xml version="1.0" encoding="utf-8"?>
<!-- Generator: Adobe Illustrator 22.0.0, SVG Export Plug-In . SVG Version: 6.00 Build 0)  -->
<svg version="1.1" id="Layer_1" xmlns="http://www.w3.org/2000/svg" xmlns:xlink="http://www.w3.org/1999/xlink" x="0px" y="0px" width="27" height="27" viewBox="0 0 500 500" style="enable-background:new 0 0 500 500;" xml:space="preserve">
<style type="text/css">
	.st0{fill:#07B296;}
</style>
<path id="lapiz_1_" class="st0" d="M489.7,25.1L476,11.4c-13.9-13.9-36.7-13.9-50.6,0L211.6,225.1c-0.8,0.8-1.6,1.7-2.3,2.6
	c-1.2,1-2.1,2.2-2.8,3.8l-0.2,0.4c-2,3.3-3.4,6.8-4.3,10.4l-30.3,74.3c-3.3,8,4.7,15.9,12.7,12.7l74.4-30.3
	c3.6-0.8,7.1-2.3,10.4-4.2l0.4-0.2c1.5-0.6,2.8-1.6,3.8-2.7c0.9-0.7,1.8-1.5,2.6-2.4L489.7,75.7C503.6,61.8,503.6,39,489.7,25.1z
	 M216.9,253.2l30.2,30.2l-51,20.8L216.9,253.2z M471.6,56.9L262.1,266.4c-0.3,0.3-0.5,0.5-0.8,0.7l-27.9-27.9
	c0.2-0.3,0.5-0.6,0.7-0.8L443.6,28.9c5.1-5.1,13.5-5.1,18.6,0l9.4,9.4C476.7,43.4,476.7,51.8,471.6,56.9z"/>
<path class="st0" d="M417,205c-12.7,0-23,10.3-23,23v10v9v184.1c0,12.6-10.3,22.9-22.9,22.9H68.9C56.3,454,46,443.7,46,431.1V128.9
	c0-12.6,10.3-22.9,22.9-22.9H253h9h10c12.7,0,23-10.3,23-23v0c0-12.6-10.3-23-23-23h-10h-9H53.7C24.2,60,0,84.1,0,113.7v332.7
	C0,475.8,24.2,500,53.7,500h332.7c29.5,0,53.7-24.2,53.7-53.7V247v-9v-10C440,215.3,429.7,205,417,205z"/>
</svg>
