<?xml version="1.0" encoding="utf-8"?>
<!-- Generator: Adobe Illustrator 22.0.0, SVG Export Plug-In . SVG Version: 6.00 Build 0)  -->
<svg version="1.1" id="Layer_1" xmlns="http://www.w3.org/2000/svg" xmlns:xlink="http://www.w3.org/1999/xlink" x="0px" y="0px" width="24" height="29.96" viewBox="0 0 310 387" style="enable-background:new 0 0 310 387;" xml:space="preserve">
<style type="text/css">
	.st0{fill:#07B296;}
</style>
<path class="st0" d="M282,114h-57h-18c-5.5,0-10,4.5-10,10v12c0,5.5,4.5,10,10,10h18h41c6.6,0,12,5.4,12,12v185c0,6.6-5.4,12-12,12
	H44c-6.6,0-12-5.4-12-12V158c0-6.6,5.4-12,12-12h42h18c5.5,0,10-4.5,10-10v-12c0-5.5-4.5-10-10-10H86H28c-15.4,0-28,12.6-28,28v217
	c0,15.4,12.6,28,28,28h254c15.4,0,28-12.6,28-28V142C310,126.6,297.4,114,282,114z"/>
<path class="st0" d="M223.7,61.6L168.5,6.3c-2.2-3.1-5.5-5.3-9.4-6c-0.3-0.1-0.6-0.1-0.9-0.1c0,0,0,0,0,0C157.3,0,156.4,0,155.4,0
	c-1.7-0.1-3.5,0.1-5.2,0.6c-0.3,0.1-0.6,0.2-0.9,0.3c-0.1,0-0.1,0.1-0.2,0.1c-2.4,0.9-4.4,2.5-6,4.4l-56,56.2
	c-5.6,5.6-5.6,14.7,0,20.3l1.7,1.7c5.6,5.6,14.7,5.6,20.3,0l30.9-31v186.8c0,0.2,0,0.4,0,0.6v27c0,6.6,5.4,12,12,12h7
	c6.6,0,12-5.4,12-12v-25.7h0.1V52.8l30.7,30.8c5.6,5.6,14.7,5.6,20.3,0l1.7-1.7C229.3,76.3,229.3,67.2,223.7,61.6z"/>
</svg>
